<svg width="100" height="19" viewBox="0 0 100 19" fill="none" xmlns="http://www.w3.org/2000/svg">
<g id="amazonpay_b&#38;w">
<path id="Shape" fill-rule="evenodd" clip-rule="evenodd" d="M39.7311 14.73C35.777 17.4181 31.1023 18.8473 26.3211 18.83C20.2695 18.8639 14.4237 16.6347 9.9311 12.58C9.5911 12.27 9.9311 11.85 10.3011 12.09C15.2952 14.9446 20.9487 16.4442 26.7011 16.44C30.9992 16.4207 35.2509 15.5507 39.2111 13.88C39.8211 13.62 40.3311 14.29 39.7311 14.73Z" fill="#333333"/>
<path id="Shape_2" fill-rule="evenodd" clip-rule="evenodd" d="M41.2397 13C40.7797 12.4 38.1797 12.72 37.0097 12.86C36.6497 12.86 36.5997 12.59 36.9197 12.36C38.9897 10.91 42.3997 11.36 42.7897 11.82C43.1797 12.28 42.6897 15.72 40.7897 17.35C40.4897 17.6 40.2097 17.46 40.3397 17.13C40.7797 16.04 41.7597 13.59 41.3397 13H41.2397Z" fill="#333333"/>
<path id="Shape_3" fill-rule="evenodd" clip-rule="evenodd" d="M37.0906 2.06998V0.649977C37.0876 0.554505 37.1249 0.462184 37.1934 0.3956C37.2619 0.329016 37.3552 0.294312 37.4506 0.299977H43.8006C43.8978 0.297276 43.9919 0.334008 44.0616 0.401816C44.1313 0.469624 44.1706 0.562741 44.1706 0.659977V1.86998C44.0833 2.20044 43.9188 2.50547 43.6906 2.75998L40.4006 7.45998C41.6487 7.39392 42.8917 7.66325 44.0006 8.23998C44.205 8.34837 44.335 8.55866 44.3406 8.78998V10.3C44.3406 10.51 44.1106 10.75 43.8706 10.62C41.7656 9.53447 39.2655 9.53447 37.1606 10.62C36.9406 10.73 36.7106 10.5 36.7106 10.29V8.86998C36.6824 8.52091 36.7627 8.17166 36.9406 7.86998L40.7606 2.39998H37.4606C37.3626 2.40563 37.2667 2.36987 37.1964 2.30141C37.126 2.23296 37.0876 2.1381 37.0906 2.03998V2.06998Z" fill="#333333"/>
<path id="Shape_4" fill-rule="evenodd" clip-rule="evenodd" d="M13.9204 10.92H12.0004C11.8217 10.912 11.6744 10.7773 11.6504 10.6V0.680011C11.6553 0.487101 11.8077 0.330379 12.0004 0.320011H13.8004C13.9824 0.328816 14.1309 0.468832 14.1504 0.650011V2.00001C14.5005 0.900724 15.5217 0.154297 16.6754 0.154297C17.8291 0.154297 18.8502 0.900724 19.2004 2.00001C19.5641 1.03717 20.4187 0.345233 21.4362 0.189818C22.4536 0.0344024 23.4758 0.439653 24.1104 1.25001C24.7204 2.08001 24.6004 3.25001 24.6004 4.36001V10.62C24.5896 10.8204 24.421 10.9757 24.2204 10.97H22.3404C22.151 10.9646 22.0003 10.8095 22.0004 10.62V5.31001C22.0257 4.68938 22.0056 4.06772 21.9404 3.45001C21.863 2.9033 21.3571 2.52278 20.8104 2.60001C20.2969 2.61498 19.8413 2.93314 19.6504 3.41001C19.4884 4.0295 19.4276 4.67112 19.4704 5.31001V10.57C19.4598 10.7665 19.2972 10.9203 19.1004 10.92H17.1704C16.9771 10.92 16.8204 10.7633 16.8204 10.57V5.31001C16.8204 4.20001 17.0004 2.58001 15.6304 2.58001C14.2604 2.58001 14.2904 4.16001 14.2904 5.31001V10.57C14.2878 10.6655 14.2473 10.756 14.1779 10.8217C14.1085 10.8873 14.0159 10.9227 13.9204 10.92Z" fill="#333333"/>
<path id="Shape_5" fill-rule="evenodd" clip-rule="evenodd" d="M49.6506 2.13996C48.2306 2.13996 48.1406 4.07996 48.1406 5.28996C48.1406 6.49996 48.1406 9.08996 49.6306 9.08996C51.1206 9.08996 51.2006 6.99996 51.2006 5.72996C51.234 4.84439 51.1397 3.95864 50.9206 3.09996C50.8147 2.49127 50.2672 2.06017 49.6506 2.09996V2.13996ZM49.651 0.139985C52.521 0.139985 54.071 2.60999 54.071 5.73999C54.071 8.86999 52.361 11.16 49.651 11.16C46.941 11.16 45.291 8.66998 45.291 5.59999C45.291 2.52999 46.841 0.109985 49.631 0.109985L49.651 0.139985Z" fill="#333333"/>
<path id="Shape_6" fill-rule="evenodd" clip-rule="evenodd" d="M57.77 10.92H55.85C55.6567 10.92 55.5 10.7633 55.5 10.57V0.650009C55.5159 0.459078 55.6785 0.314029 55.87 0.320009H57.66C57.8226 0.328374 57.9606 0.442037 58 0.600009V2.12001C58.297 0.913373 59.398 0.07927 60.64 0.120009C61.5459 0.0767166 62.4052 0.523545 62.89 1.29001C63.3111 2.26239 63.4829 3.32445 63.39 4.38001V10.62C63.369 10.8055 63.2063 10.9419 63.02 10.93H61.13C60.953 10.9268 60.8046 10.7954 60.78 10.62V5.23001C60.78 4.14001 60.91 2.55001 59.58 2.55001C59.082 2.57372 58.6439 2.88662 58.46 3.35001C58.2209 3.9466 58.1151 4.58824 58.15 5.23001V10.57C58.1392 10.7704 57.9706 10.9257 57.77 10.92Z" fill="#333333"/>
<path id="Shape_7" fill-rule="evenodd" clip-rule="evenodd" d="M34.0005 10.9C33.8656 10.9952 33.6854 10.9952 33.5505 10.9C33.1074 10.5427 32.7315 10.1092 32.4405 9.61998C31.6632 10.5712 30.4768 11.0919 29.2505 11.02C28.4507 11.0676 27.6702 10.7628 27.1144 10.1858C26.5585 9.60878 26.2831 8.81741 26.3605 8.01998C26.3122 6.63766 27.1362 5.37361 28.4205 4.85998C29.5798 4.48734 30.7839 4.27208 32.0005 4.21998V3.99998C32.0581 3.51991 31.9747 3.03345 31.7605 2.59998C31.5057 2.26451 31.1011 2.07721 30.6805 2.09998C29.9426 2.03854 29.2741 2.53559 29.1205 3.25998C29.1008 3.43715 28.9662 3.57988 28.7905 3.60998L26.9105 3.40998C26.7284 3.36559 26.6166 3.18219 26.6605 2.99998C27.0805 0.729981 29.0805 -1.86175e-05 30.9005 -1.86175e-05H31.0005C32.0399 -0.0204593 33.0518 0.33459 33.8505 0.999981C34.7905 1.87998 34.7005 3.04998 34.7005 4.31998V7.31998C34.7052 7.99115 34.9664 8.63511 35.4305 9.11998C35.4983 9.18753 35.5364 9.27929 35.5364 9.37498C35.5364 9.47068 35.4983 9.56243 35.4305 9.62998C35.0405 9.95998 34.3305 10.57 33.9505 10.91L34.0005 10.9ZM32.0011 6.18996C32.0711 6.89442 31.943 7.60443 31.6311 8.23996C31.3815 8.75247 30.8707 9.0866 30.3011 9.10996C29.5611 9.10996 29.1211 8.54996 29.1211 7.70996C29.1211 6.06996 30.6011 5.76996 32.0011 5.76996V6.18996Z" fill="#333333"/>
<path id="Shape_8" fill-rule="evenodd" clip-rule="evenodd" d="M8.64017 10.9C8.50529 10.9952 8.32504 10.9952 8.19017 10.9C7.74816 10.5572 7.37206 10.1371 7.08017 9.65997C6.30288 10.6112 5.11649 11.1319 3.89017 11.06C3.08848 11.108 2.3061 10.8019 1.74987 10.2225C1.19365 9.64323 0.919591 8.84904 1.00017 8.04997C0.95187 6.66766 1.77591 5.4036 3.06017 4.88997C4.23388 4.50185 5.45524 4.27642 6.69017 4.21997V3.99997C6.75147 3.52087 6.67153 3.03428 6.46017 2.59997C6.20109 2.26429 5.79359 2.07736 5.37017 2.09997C4.64507 2.04122 3.98605 2.52166 3.82017 3.22997C3.80044 3.40714 3.66587 3.54987 3.49017 3.57997L1.61017 3.37997C1.42859 3.34932 1.30181 3.18321 1.32017 2.99997C1.75017 0.729973 3.75017 -2.74556e-05 5.57017 -2.74556e-05H5.71017C6.7494 -0.0195696 7.76098 0.335373 8.56017 0.999973C9.50017 1.87997 9.41017 3.04997 9.41017 4.31997V7.31997C9.41617 7.98899 9.67312 8.63137 10.1302 9.11997C10.2005 9.18612 10.2404 9.2784 10.2404 9.37497C10.2404 9.47154 10.2005 9.56382 10.1302 9.62997C9.73017 9.95997 9.03017 10.57 8.65017 10.91L8.64017 10.9ZM6.69008 6.18996C6.76374 6.8935 6.63904 7.60361 6.33008 8.23996C6.08046 8.75247 5.56967 9.0866 5.00008 9.10996C4.26008 9.10996 3.83008 8.54996 3.83008 7.70996C3.83008 6.06996 5.31008 5.76996 6.70008 5.76996V6.18996H6.69008Z" fill="#333333"/>
<path id="Shape_9" fill-rule="evenodd" clip-rule="evenodd" d="M89.8492 14.48V13.75C89.8492 13.54 89.9492 13.4 90.1692 13.41C90.6266 13.48 91.0919 13.48 91.5492 13.41C92.0693 13.2863 92.4933 12.9111 92.6792 12.41C92.9992 11.68 93.2092 11.1 93.3392 10.71L89.3192 0.799966C89.2492 0.629966 89.2292 0.309966 89.5692 0.309966H90.9992C91.2043 0.309261 91.3826 0.450283 91.4292 0.649966L94.3492 8.73997L97.1092 0.649966C97.1566 0.446574 97.3405 0.304517 97.5492 0.309966H98.8692C99.2092 0.309966 99.1892 0.629966 99.1192 0.799966L95.1192 11.07C94.6092 12.43 93.9192 14.61 92.3692 14.99C91.5982 15.1785 90.7891 15.1403 90.0392 14.88C89.9107 14.7877 89.8359 14.6381 89.8392 14.48H89.8492Z" fill="#333333"/>
<path id="Shape_10" fill-rule="evenodd" clip-rule="evenodd" d="M88.0008 10.32C87.9954 10.5039 87.8448 10.6501 87.6608 10.65H86.6608C86.4652 10.6568 86.2964 10.514 86.2708 10.32L86.1708 9.64C85.6923 10.064 85.1443 10.4023 84.5508 10.64C83.3751 11.1602 82.0231 11.0972 80.9008 10.47C80.0781 9.90479 79.6026 8.95739 79.6408 7.96C79.6178 7.1732 79.8969 6.40746 80.4208 5.82C81.2145 5.0306 82.3026 4.60986 83.4208 4.66C84.3159 4.64603 85.2083 4.76053 86.0708 5V3.61C86.0708 2.23 85.4908 1.61 83.9608 1.61C82.8303 1.61579 81.7085 1.80839 80.6408 2.18C80.554 2.18334 80.4701 2.14891 80.4106 2.08562C80.3512 2.02234 80.3221 1.93639 80.3308 1.85V1.09C80.3506 0.898052 80.479 0.734594 80.6608 0.67C81.7752 0.241538 82.957 0.0146724 84.1508 0C85.9008 0 88.0008 0.39 88.0008 3.08V10.32ZM86.0903 8.32003V6.32003C85.3679 6.13119 84.6266 6.02385 83.8803 6.00003C83.2327 5.95429 82.5922 6.15826 82.0903 6.57003C81.8091 6.88995 81.6591 7.30425 81.6703 7.73003C81.6306 8.26187 81.869 8.77636 82.3003 9.09003C82.9254 9.39468 83.6479 9.43081 84.3003 9.19003C84.9304 9.01907 85.5168 8.71565 86.0203 8.30003L86.0903 8.32003Z" fill="#333333"/>
<path id="Shape_11" fill-rule="evenodd" clip-rule="evenodd" d="M73.3614 1.65997C75.5614 1.65997 76.1614 3.38997 76.1614 5.36997C76.2809 6.51864 75.9512 7.66899 75.2414 8.57997C74.7013 9.07775 73.9709 9.31512 73.2414 9.22997C72.3111 9.15661 71.4236 8.80856 70.6914 8.22997V2.59997C71.4499 2.01548 72.3742 1.6864 73.3314 1.65997H73.3614ZM70.3607 14.84H69.0607C68.8729 14.84 68.7207 14.6878 68.7207 14.5V0.67C68.7207 0.482223 68.8729 0.33 69.0607 0.33H70.0607C70.258 0.328373 70.4254 0.474335 70.4507 0.67L70.5607 1.39C71.4753 0.541153 72.6638 0.0480327 73.9107 0C77.1807 0 78.2507 2.69 78.2507 5.49C78.2507 8.49 76.6107 10.9 73.8307 10.9C72.683 10.899 71.5759 10.4753 70.7207 9.71V14.5C70.7207 14.6878 70.5685 14.84 70.3807 14.84H70.3607Z" fill="#333333"/>
</g>
</svg>
