<svg width="48" height="39" viewBox="0 0 48 39" fill="none" xmlns="http://www.w3.org/2000/svg">
<g id="mastercard_color">
<path id="Shape" d="M8.21992 34.47C8.07991 34.3289 7.91339 34.2167 7.72992 34.14C7.5332 34.057 7.32326 34.0096 7.10992 34H6.73992C6.60963 34.0228 6.48222 34.0597 6.35992 34.11C6.23369 34.1627 6.11579 34.2334 6.00992 34.32C5.89284 34.4182 5.79457 34.5368 5.71992 34.67C5.59305 34.4549 5.40977 34.2786 5.18992 34.16C4.94829 34.0397 4.67942 33.9845 4.40992 34C4.31016 33.9902 4.20968 33.9902 4.10992 34C4.00179 34.01 3.89656 34.0405 3.79992 34.09C3.68933 34.1303 3.58749 34.1914 3.49992 34.27C3.40169 34.3489 3.31721 34.4435 3.24992 34.55V34.07H2.41992V38H3.24992V35.88C3.24854 35.7296 3.27569 35.5803 3.32992 35.44C3.38328 35.3203 3.45404 35.2091 3.53992 35.11C3.63293 35.0237 3.74153 34.9558 3.85992 34.91C3.98158 34.8649 4.11016 34.8412 4.23992 34.84C4.48616 34.8278 4.72486 34.9269 4.88992 35.11C5.05439 35.328 5.13592 35.5974 5.11992 35.87V38.06H5.99992V35.88C5.97257 35.7347 5.97257 35.5854 5.99992 35.44C6.04964 35.3184 6.12077 35.2066 6.20992 35.11C6.30293 35.0237 6.41153 34.9558 6.52992 34.91C6.65158 34.8649 6.78016 34.8412 6.90992 34.84C7.15616 34.8278 7.39486 34.9269 7.55992 35.11C7.72439 35.328 7.80592 35.5974 7.78992 35.87V38.06H8.61992V35.59C8.62601 35.3903 8.59897 35.1909 8.53992 35C8.47446 34.8016 8.36508 34.6204 8.21992 34.47Z" fill="#1D1D1B"/>
<path id="Shape_2" fill-rule="evenodd" clip-rule="evenodd" d="M11.3801 34C11.8645 33.9928 12.3226 34.22 12.6101 34.61V34.13H13.4701V38.03H12.6101V37.55C12.3163 37.9288 11.8592 38.1443 11.3801 38.13C11.1147 38.1341 10.8518 38.0795 10.6101 37.97C10.3744 37.873 10.1603 37.7303 9.98007 37.55C9.80354 37.3575 9.66449 37.1336 9.57007 36.89C9.46773 36.6254 9.41682 36.3437 9.42007 36.06C9.41778 35.7764 9.46866 35.4949 9.57007 35.23C9.66475 34.9896 9.80384 34.7691 9.98007 34.58C10.3475 34.2029 10.8536 33.9933 11.3801 34ZM12.3701 37.01C12.4751 36.8934 12.5565 36.7576 12.6101 36.61L12.5801 36.59C12.6459 36.4381 12.6831 36.2754 12.6901 36.11C12.6945 35.9399 12.6673 35.7704 12.6101 35.61C12.5542 35.4667 12.4729 35.3346 12.3701 35.22C12.2632 35.105 12.1338 35.0132 11.9901 34.95C11.8378 34.8877 11.6745 34.8571 11.5101 34.86C11.338 34.8555 11.1672 34.8897 11.0101 34.96C10.8675 35.0202 10.7409 35.1126 10.6401 35.23C10.5347 35.3447 10.4561 35.4813 10.4101 35.63C10.3527 35.7834 10.3255 35.9464 10.3301 36.11C10.3248 36.277 10.3519 36.4434 10.4101 36.6C10.4584 36.7478 10.5367 36.884 10.6401 37C10.7459 37.1119 10.8713 37.2034 11.0101 37.27C11.1672 37.3404 11.338 37.3745 11.5101 37.37C11.6757 37.3747 11.8401 37.3404 11.9901 37.27C12.1334 37.2106 12.2628 37.1221 12.3701 37.01Z" fill="#1D1D1B"/>
<path id="Shape_3" d="M17.3991 36.09C17.1033 35.8807 16.7592 35.75 16.3991 35.71L15.9991 35.65H15.7491C15.6756 35.6389 15.6045 35.6152 15.5391 35.58C15.4894 35.5516 15.4453 35.5143 15.4091 35.47C15.373 35.4209 15.3553 35.3608 15.3591 35.3C15.3551 35.1604 15.428 35.0298 15.5491 34.96C15.7161 34.8647 15.907 34.8196 16.0991 34.83C16.2189 34.8201 16.3393 34.8201 16.4591 34.83L16.7991 34.91L17.0891 35.02L17.3091 35.13L17.6791 34.47C17.456 34.331 17.2133 34.2265 16.9591 34.16C16.6749 34.0865 16.3826 34.0495 16.0891 34.05C15.8592 34.047 15.6302 34.0773 15.4091 34.14C15.2249 34.1906 15.0518 34.2754 14.8991 34.39C14.7595 34.4933 14.6492 34.6312 14.5791 34.79C14.5004 34.9517 14.4627 35.1303 14.4691 35.31C14.4611 35.6026 14.5817 35.884 14.7991 36.08C15.0917 36.2951 15.4374 36.4265 15.7991 36.46L16.2091 36.51C16.3875 36.5315 16.5604 36.5857 16.7191 36.67C16.8213 36.7266 16.886 36.8332 16.8891 36.95C16.8845 37.1007 16.7956 37.236 16.6591 37.3C16.451 37.4013 16.2199 37.4462 15.9891 37.43C15.8459 37.441 15.7022 37.441 15.5591 37.43L15.2091 37.34C15.1122 37.3047 15.0185 37.2612 14.9291 37.21L14.6891 37L14.2891 37.64C14.4271 37.7459 14.5784 37.8333 14.7391 37.9C14.8893 37.959 15.0429 38.0091 15.1991 38.05C15.3375 38.0845 15.4777 38.1112 15.6191 38.13H15.9991C16.2519 38.1333 16.5041 38.103 16.7491 38.04C16.95 37.988 17.1397 37.8999 17.3091 37.78C17.4544 37.6707 17.5739 37.5307 17.6591 37.37C17.7396 37.2086 17.7808 37.0304 17.7791 36.85C17.7823 36.5502 17.6408 36.2673 17.3991 36.09Z" fill="#1D1D1B"/>
<path id="Shape_4" fill-rule="evenodd" clip-rule="evenodd" d="M24.8293 34.18C25.0529 34.2778 25.2537 34.4208 25.4193 34.6C25.58 34.7953 25.7021 35.0192 25.7793 35.26C25.8743 35.5298 25.9217 35.814 25.9193 36.1V36.26V36.42H23.0193C23.0418 36.5778 23.0926 36.7303 23.1693 36.87C23.2345 36.9926 23.3269 37.0986 23.4393 37.18C23.5413 37.2593 23.6564 37.3203 23.7793 37.36C23.9123 37.4002 24.0505 37.4205 24.1893 37.42C24.3908 37.4166 24.5902 37.3794 24.7793 37.31C24.9777 37.2426 25.1611 37.1373 25.3193 37L25.7693 37.57C25.5479 37.7688 25.2848 37.9158 24.9993 38C24.7198 38.0983 24.4257 38.149 24.1293 38.15C23.8522 38.1524 23.5772 38.1015 23.3193 38C22.8381 37.8066 22.4582 37.423 22.2693 36.94C22.1742 36.6668 22.1269 36.3793 22.1293 36.09C22.1238 35.8038 22.1712 35.519 22.2693 35.25C22.3566 35.0081 22.4927 34.7869 22.6693 34.6C22.8441 34.4179 23.0554 34.2747 23.2893 34.18C23.5398 34.077 23.8086 34.026 24.0793 34.03C24.337 34.0275 24.5924 34.0786 24.8293 34.18ZM23.1193 35.37C23.0586 35.4927 23.0181 35.6244 22.9993 35.76H25.0393C25.0089 35.491 24.8933 35.2387 24.7093 35.04C24.5277 34.8717 24.2869 34.7818 24.0393 34.79C23.9026 34.7857 23.7665 34.8096 23.6393 34.86C23.5223 34.9026 23.4164 34.9709 23.3293 35.06C23.2405 35.1492 23.1692 35.2544 23.1193 35.37Z" fill="#1D1D1B"/>
<path id="Shape_5" fill-rule="evenodd" clip-rule="evenodd" d="M36.2798 34.19C36.481 34.287 36.656 34.4311 36.7898 34.61V34.13H37.6498V38.06H36.7898V37.58C36.656 37.759 36.481 37.903 36.2798 38C36.0573 38.1137 35.8095 38.1687 35.5598 38.16C35.0385 38.1552 34.5398 37.9471 34.1698 37.58C33.9877 37.3898 33.8449 37.1655 33.7498 36.92C33.6474 36.6554 33.5965 36.3737 33.5998 36.09C33.5975 35.8064 33.6483 35.5249 33.7498 35.26C33.8442 35.0171 33.9871 34.7959 34.1698 34.61C34.3441 34.4249 34.5553 34.2785 34.7898 34.18C35.034 34.0797 35.2957 34.0287 35.5598 34.03C35.8095 34.0213 36.0573 34.0764 36.2798 34.19ZM36.5498 37.01C36.6547 36.8934 36.7362 36.7575 36.7898 36.61L36.7598 36.59C36.8255 36.4381 36.8628 36.2754 36.8698 36.11C36.8742 35.9398 36.847 35.7703 36.7898 35.61C36.7338 35.4666 36.6525 35.3345 36.5498 35.22C36.4428 35.105 36.3135 35.0131 36.1698 34.95C36.0175 34.8877 35.8542 34.8571 35.6898 34.86C35.5177 34.8555 35.3468 34.8897 35.1898 34.96C35.0472 35.0202 34.9205 35.1126 34.8198 35.23C34.7144 35.3446 34.6358 35.4813 34.5898 35.63C34.5324 35.7834 34.5052 35.9463 34.5098 36.11C34.5044 36.277 34.5316 36.4434 34.5898 36.6C34.6381 36.7477 34.7164 36.8839 34.8198 37C34.9256 37.1119 35.051 37.2034 35.1898 37.27C35.3468 37.3403 35.5177 37.3745 35.6898 37.37C35.8554 37.3746 36.0198 37.3404 36.1698 37.27C36.3131 37.2106 36.4425 37.1221 36.5498 37.01Z" fill="#1D1D1B"/>
<path id="Shape_6" d="M21.0704 37.27C20.9395 37.3206 20.8007 37.3477 20.6604 37.35C20.581 37.3644 20.4997 37.3644 20.4204 37.35C20.2584 37.2909 20.1353 37.1566 20.0904 36.99C20.0554 36.8836 20.0385 36.772 20.0404 36.66V34.91H21.4204V34.13H20.0004V32.94H19.1404V34.13H18.4004V34.91H19.1804V36.63C19.1471 37.0502 19.28 37.4667 19.5504 37.79C19.8246 38.0359 20.1822 38.1682 20.5504 38.16C20.7794 38.1635 21.0069 38.1227 21.2204 38.04L21.5904 37.87L21.2904 37.15C21.2213 37.1974 21.1476 37.2376 21.0704 37.27Z" fill="#1D1D1B"/>
<path id="Shape_7" d="M28.7987 34C28.5751 33.9946 28.353 34.039 28.1487 34.13C27.9476 34.2507 27.7794 34.419 27.6587 34.62V34.1H26.8887V38.03H27.6687V35.9C27.6643 35.747 27.688 35.5944 27.7387 35.45C27.7816 35.3294 27.8459 35.2176 27.9287 35.12C28.0113 35.028 28.114 34.9562 28.2287 34.91C28.3471 34.8658 28.4723 34.8421 28.5987 34.84C28.7118 34.8308 28.8255 34.8308 28.9387 34.84H29.1087L29.3687 34.02H29.1587C29.0395 34.0025 28.919 33.9958 28.7987 34Z" fill="#1D1D1B"/>
<path id="Shape_8" d="M40.6991 34C40.4754 33.9946 40.2534 34.039 40.0491 34.13C39.848 34.2507 39.6798 34.419 39.5591 34.62V34.1H38.7891V38.03H39.5691V35.9C39.5646 35.747 39.5884 35.5944 39.6391 35.45C39.682 35.3294 39.7463 35.2176 39.8291 35.12C39.9136 35.0302 40.0157 34.9587 40.1291 34.91C40.2507 34.8648 40.3793 34.8411 40.5091 34.84C40.6189 34.8314 40.7292 34.8314 40.8391 34.84H41.0091L41.2691 34.02H41.0591C40.9399 34.0025 40.8194 33.9958 40.6991 34Z" fill="#1D1D1B"/>
<path id="Shape_9" fill-rule="evenodd" clip-rule="evenodd" d="M44.6999 34.61V32.54H45.5599V38.03H44.6999V37.55C44.4061 37.9288 43.949 38.1443 43.4699 38.13C43.2046 38.1341 42.9416 38.0795 42.6999 37.97C42.4642 37.873 42.2501 37.7303 42.0699 37.55C41.8934 37.3575 41.7543 37.1336 41.6599 36.89C41.5576 36.6254 41.5067 36.3437 41.5099 36.06C41.5076 35.7764 41.5585 35.4949 41.6599 35.23C41.7546 34.9896 41.8937 34.7691 42.0699 34.58C42.4373 34.2029 42.9435 33.9932 43.4699 34C43.9544 33.9928 44.4125 34.22 44.6999 34.61ZM44.4599 36.99C44.5649 36.8734 44.6464 36.7376 44.6999 36.59H44.6699C44.7254 36.4362 44.7525 36.2736 44.7499 36.11C44.7543 35.9399 44.7272 35.7703 44.6699 35.61C44.614 35.4667 44.5327 35.3346 44.4299 35.22C44.323 35.105 44.1937 35.0132 44.0499 34.95C43.8977 34.8877 43.7344 34.8571 43.5699 34.86C43.3979 34.8555 43.227 34.8897 43.0699 34.96C42.9274 35.0202 42.8007 35.1126 42.6999 35.23C42.5945 35.3447 42.516 35.4813 42.4699 35.63C42.4126 35.7834 42.3854 35.9464 42.3899 36.11C42.3846 36.277 42.4118 36.4434 42.4699 36.6C42.5183 36.7478 42.5965 36.8839 42.6999 37C42.8163 37.1078 42.952 37.1926 43.0999 37.25C43.257 37.3204 43.4279 37.3545 43.5999 37.35C43.7655 37.3547 43.9299 37.3204 44.0799 37.25C44.2232 37.1906 44.3526 37.1021 44.4599 36.99Z" fill="#1D1D1B"/>
<path id="Shape_10" d="M30.8495 35.19C30.9604 35.0777 31.0931 34.9892 31.2395 34.93C31.3955 34.8687 31.5618 34.8381 31.7295 34.84C31.9101 34.838 32.0896 34.8685 32.2595 34.93C32.4143 34.9853 32.557 35.0702 32.6795 35.18L33.0895 34.49C32.9306 34.3668 32.7556 34.2659 32.5695 34.19C32.3031 34.0804 32.0174 34.026 31.7295 34.03C31.4413 34.024 31.1552 34.0785 30.8895 34.19C30.3894 34.3863 29.9894 34.7755 29.7795 35.27C29.6709 35.5296 29.6165 35.8086 29.6195 36.09C29.6145 36.3715 29.669 36.651 29.7795 36.91C29.8806 37.1572 30.0302 37.3816 30.2195 37.57C30.4132 37.7549 30.6406 37.9009 30.8895 38C31.1552 38.1115 31.4413 38.166 31.7295 38.16C32.0174 38.164 32.3031 38.1096 32.5695 38C32.7556 37.9241 32.9306 37.8232 33.0895 37.7L32.6795 37C32.557 37.1097 32.4143 37.1946 32.2595 37.25C32.0896 37.3114 31.9101 37.3419 31.7295 37.34C31.5618 37.3419 31.3955 37.3113 31.2395 37.25C31.0931 37.1908 30.9604 37.1023 30.8495 36.99C30.7348 36.8771 30.6461 36.7406 30.5895 36.59C30.5271 36.4273 30.4965 36.2542 30.4995 36.08C30.4984 35.9059 30.5289 35.7332 30.5895 35.57C30.6499 35.4272 30.7383 35.298 30.8495 35.19Z" fill="#1D1D1B"/>
<path id="Shape_11" fill-rule="evenodd" clip-rule="evenodd" d="M47.5201 37.48C47.4673 37.4695 47.4129 37.4695 47.3601 37.48C47.3143 37.4687 47.267 37.4653 47.2201 37.47C47.1695 37.4879 47.1246 37.5189 47.0901 37.56C47.0515 37.5928 47.0208 37.6338 47.0001 37.68C46.9905 37.7329 46.9905 37.7871 47.0001 37.84C46.9896 37.8928 46.9896 37.9472 47.0001 38C47.0136 38.048 47.0375 38.0924 47.0701 38.13C47.1046 38.1711 47.1495 38.2022 47.2001 38.22C47.303 38.2602 47.4172 38.2602 47.5201 38.22C47.5692 38.1995 47.6135 38.1688 47.6501 38.13C47.6886 38.0972 47.7194 38.0562 47.7401 38.01C47.7506 37.9572 47.7506 37.9028 47.7401 37.85C47.7496 37.7971 47.7496 37.7429 47.7401 37.69C47.7194 37.6438 47.6886 37.6028 47.6501 37.57C47.6135 37.5313 47.5692 37.5006 47.5201 37.48ZM47.4701 38.17H47.3601H47.2501L47.1501 38.11L47.0901 38.01C47.0632 37.9392 47.0632 37.8609 47.0901 37.79C47.1053 37.7571 47.1255 37.7267 47.1501 37.7L47.2501 37.63H47.3601H47.4701C47.5057 37.6451 47.5367 37.6692 47.5601 37.7C47.5906 37.7215 47.612 37.7536 47.6201 37.79C47.6594 37.8581 47.6594 37.942 47.6201 38.01C47.6099 38.0484 47.5891 38.083 47.5601 38.11L47.4701 38.17ZM47.3601 37.7C47.3946 37.6822 47.4356 37.6822 47.4701 37.7C47.4916 37.719 47.5039 37.7463 47.5039 37.775C47.5039 37.8037 47.4916 37.8311 47.4701 37.85H47.4001L47.5101 37.98H47.3901L47.2901 37.85V37.98H47.1901V37.7H47.3601Z" fill="#1D1D1B"/>
<path id="Shape_12" d="M18.3496 15.79C18.3536 11.2613 20.4364 6.98516 23.9996 4.19002C17.9397 -0.616924 9.20026 0.0532017 3.94409 5.72785C-1.31209 11.4025 -1.31209 20.1675 3.94409 25.8422C9.20026 31.5168 17.9397 32.187 23.9996 27.38C20.4356 24.5899 18.3522 20.3162 18.3496 15.79Z" fill="#E20D17"/>
<path id="Oval" d="M23.9598 27.39C24.3084 27.39 29.5798 23.3678 29.5798 15.79C29.5798 8.21218 27.0637 4.19 23.9598 4.19C23.1894 4.19 18.3398 8.21218 18.3398 15.79C18.3398 23.3678 23.6112 27.39 23.9598 27.39Z" fill="#EA610A"/>
<path id="Shape_13" d="M33.13 0.999991C29.8148 1.00781 26.5987 2.13149 24 4.18999C27.5496 6.99089 29.6207 11.2634 29.6207 15.785C29.6207 20.3066 27.5496 24.5791 24 27.38C29.0865 31.4122 36.2077 31.6567 41.5588 27.9829C46.9099 24.3091 49.2403 17.5756 47.3049 11.38C45.3696 5.1844 39.6208 0.974679 33.13 0.999991Z" fill="#F59E00"/>
</g>
</svg>
