<svg width="97" height="24" viewBox="0 0 97 24" fill="none" xmlns="http://www.w3.org/2000/svg">
<g id="paypal_b&#38;w">
<path id="Shape" opacity="0.5" fill-rule="evenodd" clip-rule="evenodd" d="M69.2715 5.17999H74.5215C75.9241 5.05152 77.3136 5.53657 78.3315 6.50999C79.0486 7.48381 79.2942 8.7266 79.0015 9.89999C78.4615 13.23 76.4615 14.9 73.0015 14.9H71.3815C71.0247 14.9 70.7202 15.158 70.6615 15.51L70.0615 19.33C70.0218 19.58 69.8047 19.7631 69.5515 19.76H66.8615C66.7343 19.7617 66.6128 19.7069 66.5298 19.6104C66.4468 19.5139 66.4108 19.3856 66.4315 19.26L68.5515 5.79999C68.6058 5.44404 68.9115 5.18081 69.2715 5.17999ZM72.0015 12C73.4015 12 74.8415 12 75.1315 10.1C75.2568 9.60039 75.1582 9.07102 74.8615 8.64999C74.4015 8.10999 73.5615 8.10999 72.5615 8.10999H72.2015C71.9849 8.11135 71.8 8.26683 71.7615 8.47999L71.2115 12H72.0015Z" fill="#333333"/>
<path id="Shape_2" fill-rule="evenodd" clip-rule="evenodd" d="M31.8299 5.17998H37.0799C38.4959 5.03956 39.9025 5.52548 40.9299 6.50998C41.647 7.4838 41.8926 8.72659 41.5999 9.89998C41.0499 13.23 39.0599 14.9 35.5999 14.9H33.9499C33.5931 14.9 33.2885 15.158 33.2299 15.51L32.6599 19.15C32.6012 19.502 32.2967 19.7599 31.9399 19.76H29.4299C29.3026 19.7617 29.1811 19.7069 29.0981 19.6104C29.0151 19.5139 28.9792 19.3856 28.9999 19.26L31.1099 5.79998C31.1641 5.44403 31.4698 5.1808 31.8299 5.17998ZM34.5699 12C35.9999 12 37.3999 12 37.6899 10.1C37.818 9.60183 37.7231 9.07258 37.4299 8.64998C36.9699 8.10998 36.0699 8.10998 35.1299 8.10998H34.7599C34.5471 8.11607 34.3676 8.27046 34.3299 8.47998L33.7799 12H34.5699Z" fill="#333333"/>
<path id="Shape_3" fill-rule="evenodd" clip-rule="evenodd" d="M50.2605 9.99996H52.7705C52.9088 9.99443 53.0413 10.0558 53.1265 10.1648C53.2117 10.2738 53.2393 10.4171 53.2005 10.55L51.8405 19.16C51.7858 19.5142 51.4789 19.7742 51.1205 19.77H48.8605C48.7333 19.7717 48.6118 19.7169 48.5288 19.6204C48.4458 19.5239 48.4098 19.3955 48.4305 19.27L48.5405 18.57C47.6222 19.4984 46.3664 20.0144 45.0605 20C43.8793 20.057 42.7334 19.5883 41.9305 18.72C41.0743 17.6296 40.7349 16.2206 41.0005 14.86C41.3533 12.0429 43.703 9.90112 46.5405 9.80996C47.6414 9.66119 48.7491 10.0304 49.5405 10.81L49.7105 11.07L49.8205 10.37C49.8552 10.1546 50.0424 9.99718 50.2605 9.99996ZM46.4305 17.29C47.8453 17.3157 49.06 16.2892 49.2705 14.89V14.93C49.4124 14.2895 49.254 13.6193 48.8405 13.11C48.4145 12.6437 47.8012 12.3939 47.1705 12.43C45.7569 12.4061 44.5473 13.4399 44.3505 14.84C44.2119 15.4586 44.3548 16.1069 44.7405 16.61C45.1753 17.0759 45.7943 17.3249 46.4305 17.29Z" fill="#333333"/>
<path id="Shape_4" opacity="0.5" fill-rule="evenodd" clip-rule="evenodd" d="M87.7012 10H90.2112C90.3505 9.98872 90.4867 10.0459 90.5762 10.1533C90.6657 10.2607 90.6974 10.405 90.6612 10.54L89.3012 19.15C89.2464 19.5042 88.9395 19.7642 88.5812 19.76H86.3212C86.1939 19.7617 86.0724 19.7069 85.9894 19.6104C85.9064 19.5139 85.8704 19.3856 85.8912 19.26L86.0012 18.56C85.0796 19.4971 83.8154 20.0173 82.5012 20C81.3108 20.0849 80.1446 19.6339 79.3212 18.77C78.465 17.6796 78.1255 16.2707 78.3912 14.91C78.7435 12.0634 81.1334 9.90781 84.0012 9.85C85.102 9.70123 86.2097 10.0705 87.0012 10.85L87.1512 11.07L87.2712 10.37C87.297 10.1539 87.4836 9.99328 87.7012 10ZM83.8712 17.29C85.2891 17.3247 86.509 16.2938 86.7112 14.89V14.93C86.853 14.2895 86.6947 13.6193 86.2812 13.11C85.8551 12.6437 85.2418 12.394 84.6112 12.43C83.1991 12.4106 81.9921 13.4422 81.7912 14.84C81.6526 15.4586 81.7954 16.1069 82.1812 16.61C82.6159 17.0759 83.2349 17.325 83.8712 17.29Z" fill="#333333"/>
<path id="Shape_5" d="M66.1607 10H63.6307C63.3898 9.99955 63.1646 10.1197 63.0307 10.32L59.5407 15.45L58.0707 10.52C57.9751 10.213 57.6922 10.0028 57.3707 10H54.8807C54.7411 9.99889 54.6097 10.0656 54.5282 10.1789C54.4467 10.2922 54.4253 10.438 54.4707 10.57L57.2507 18.74L54.6407 22.43C54.5411 22.5612 54.5252 22.7377 54.5997 22.8846C54.6742 23.0315 54.826 23.1229 54.9907 23.12H57.5207C57.7598 23.1227 57.9846 23.0065 58.1207 22.81L66.5207 10.68C66.6155 10.5474 66.6272 10.3727 66.551 10.2287C66.4747 10.0847 66.3236 9.99612 66.1607 10Z" fill="#333333"/>
<path id="Shape_6" opacity="0.5" d="M93.1699 5.54995L90.9999 19.26C90.9792 19.3855 91.0151 19.5139 91.0981 19.6104C91.1811 19.7069 91.3026 19.7617 91.4299 19.76H93.5999C93.9567 19.7599 94.2612 19.5019 94.3199 19.15L96.4599 5.68995C96.4855 5.55741 96.4474 5.42053 96.357 5.32029C96.2666 5.22004 96.1344 5.16808 95.9999 5.17995H93.6099C93.3933 5.18132 93.2084 5.3368 93.1699 5.54995Z" fill="#333333"/>
<path id="Shape_7" opacity="0.5" d="M18.6907 5.87998C19.0548 4.42262 18.6812 2.87935 17.6907 1.74998C16.6407 0.519975 14.7007 -2.45108e-05 12.2207 -2.45108e-05H5.00071C4.49545 -0.00430992 4.06638 0.368983 4.00071 0.869976L1.00071 19.87C0.974648 20.0476 1.02687 20.2278 1.14387 20.364C1.26088 20.5002 1.43117 20.579 1.61071 20.58H6.06071L5.76071 22.53C5.73392 22.6853 5.7777 22.8446 5.88014 22.9644C5.98259 23.0843 6.13307 23.1523 6.29071 23.15H10.0007C10.4441 23.1504 10.8217 22.8279 10.8907 22.39V22.2L11.6007 17.73V17.48C11.6697 17.042 12.0473 16.7195 12.4907 16.72H13.0507C16.6807 16.72 19.5307 15.24 20.3607 10.98C20.7983 9.50507 20.5208 7.91036 19.6107 6.66998C19.3259 6.3478 18.9876 6.07717 18.6107 5.86998" fill="#333333"/>
<path id="Shape_8" opacity="0.5" d="M18.6907 5.87998C19.0548 4.42262 18.6812 2.87935 17.6907 1.74998C16.6407 0.519975 14.7007 -2.45108e-05 12.2207 -2.45108e-05H5.00071C4.49545 -0.00430992 4.06638 0.368983 4.00071 0.869976L1.00071 19.87C0.974648 20.0476 1.02687 20.2278 1.14387 20.364C1.26088 20.5002 1.43117 20.579 1.61071 20.58H6.06071L7.18071 13.5V13.73C7.24638 13.229 7.67545 12.8557 8.18071 12.86H10.2707C14.4207 12.86 17.6707 11.17 18.6207 6.29998C18.6207 6.14998 18.6707 6.00998 18.6907 5.86998" fill="#333333"/>
<path id="Shape_9" d="M8.38071 5.90998C8.42725 5.61809 8.61414 5.36766 8.88071 5.23998C9.00183 5.17972 9.13544 5.14889 9.27071 5.14998H14.9107C15.5331 5.145 16.155 5.18847 16.7707 5.27998L17.2507 5.36998L17.7007 5.48998L17.9107 5.55998C18.1785 5.6466 18.4393 5.75358 18.6907 5.87998C19.0548 4.42262 18.6812 2.87935 17.6907 1.74998C16.6407 0.519975 14.7007 -2.45108e-05 12.2207 -2.45108e-05H5.00071C4.49545 -0.00430992 4.06638 0.368983 4.00071 0.869976L1.00071 19.87C0.974648 20.0476 1.02687 20.2278 1.14387 20.364C1.26088 20.5002 1.43117 20.579 1.61071 20.58H6.06071L7.18071 13.5L8.38071 5.90998Z" fill="#333333"/>
</g>
</svg>
