<svg width="27" height="16" viewBox="0 0 27 16" fill="none" xmlns="http://www.w3.org/2000/svg">
<g id="plane_logo">
<path fill-rule="evenodd" clip-rule="evenodd" d="M25.0793 2.09002L20.9993 0.400023C20.3832 0.148256 19.6822 0.21948 19.1293 0.590023L7.68928 8.20002C7.43343 8.36624 7.0982 8.34171 6.86928 8.14002L4.86928 6.42002C4.16877 5.80437 3.13574 5.75459 2.37928 6.30002L2.19928 6.43002C1.26482 7.16172 0.979757 8.45291 1.51928 9.51002L3.82928 14.05C4.04713 14.5449 4.45605 14.9304 4.96284 15.1188C5.46962 15.3072 6.03109 15.2824 6.51928 15.05L12.9993 12.14L14.4593 14.54C14.5839 14.7478 14.807 14.8764 15.0493 14.88C15.1252 14.8951 15.2034 14.8951 15.2793 14.88L17.4193 14.1C17.7786 13.9489 17.9739 13.5582 17.8793 13.18L17.2193 10.27L25.1393 6.69002C25.97 6.29559 26.4911 5.4494 26.4693 4.53002V4.28002C26.4794 3.33949 25.9347 2.48122 25.0793 2.09002ZM15.6893 9.93002L16.3393 12.78L15.3393 13.15L13.8593 10.72L13.5393 10.09C13.1177 10.3447 12.6801 10.5718 12.2293 10.77L5.99928 13.63C5.6567 13.779 5.25777 13.6283 5.09928 13.29L2.75928 8.75002C2.58811 8.40444 2.68433 7.9861 2.98928 7.75002L3.16928 7.62002C3.41167 7.4148 3.76688 7.4148 4.00928 7.62002L5.99928 9.36002C6.6809 9.97046 7.68988 10.0405 8.44928 9.53002L17.5893 3.43002L18.5893 5.50002C18.7325 5.84837 19.1286 6.01749 19.4793 5.88002L24.8993 3.66002C24.9794 3.86212 25.0462 4.06923 25.0993 4.28002V4.49002C25.0993 4.81002 24.1893 5.28002 23.9193 5.40002C23.6493 5.52002 21.2393 6.65002 20.5093 7.00002C19.8909 7.26577 19.2386 7.52107 18.555 7.78861C17.9009 8.04458 17.2183 8.31176 16.5093 8.61002L15.4393 9.09002L15.6893 9.93002ZM20.4793 1.93002C20.2569 1.82727 19.9961 1.85411 19.7993 2.00002L18.8293 2.69002L19.6793 4.56002L23.1293 3.17002L20.4793 1.93002Z" fill="#F57E80"/>
<path d="M20.9993 0.400023L21.0949 0.169051L21.0938 0.168599L20.9993 0.400023ZM25.0793 2.09002L25.1833 1.86252L25.1749 1.85905L25.0793 2.09002ZM19.1293 0.590023L19.2677 0.798177L19.2685 0.797697L19.1293 0.590023ZM7.68928 8.20002L7.82549 8.40967L7.82774 8.40818L7.68928 8.20002ZM6.86928 8.14002L7.03456 7.95243L7.03229 7.95048L6.86928 8.14002ZM4.86928 6.42002L4.70423 6.60782L4.70627 6.60957L4.86928 6.42002ZM2.37928 6.30002L2.23306 6.09724L2.23291 6.09735L2.37928 6.30002ZM2.19928 6.43002L2.05279 6.2272L2.04515 6.23319L2.19928 6.43002ZM1.51928 9.51002L1.74209 9.39665L1.74195 9.39638L1.51928 9.51002ZM3.82928 14.05L4.05844 13.9491L4.05209 13.9367L3.82928 14.05ZM6.51928 15.05L6.41684 14.8219L6.41183 14.8243L6.51928 15.05ZM12.9993 12.14L13.2129 12.0101L13.0982 11.8216L12.8969 11.912L12.9993 12.14ZM14.4593 14.54L14.6737 14.4115L14.6729 14.4101L14.4593 14.54ZM15.0493 14.88L15.098 14.6348L15.0757 14.6304L15.053 14.6301L15.0493 14.88ZM15.2793 14.88L15.328 15.1252L15.3468 15.1215L15.3649 15.1149L15.2793 14.88ZM17.4193 14.1L17.505 14.3352L17.5162 14.3305L17.4193 14.1ZM17.8793 13.18L17.6354 13.2353L17.6368 13.2407L17.8793 13.18ZM17.2193 10.27L17.1163 10.0422L16.9303 10.1263L16.9755 10.3253L17.2193 10.27ZM25.1393 6.69002L25.2423 6.91787L25.2465 6.91586L25.1393 6.69002ZM26.4693 4.53002H26.2192L26.2193 4.53595L26.4693 4.53002ZM26.4693 4.28002L26.2193 4.27733V4.28002H26.4693ZM16.3393 12.78L16.426 13.0145L16.6318 12.9384L16.583 12.7244L16.3393 12.78ZM15.6893 9.93002L15.933 9.87443L15.9312 9.8665L15.9289 9.85871L15.6893 9.93002ZM15.3393 13.15L15.1258 13.2801L15.2329 13.456L15.426 13.3845L15.3393 13.15ZM13.8593 10.72L13.6364 10.8332L13.6407 10.8418L13.6458 10.8501L13.8593 10.72ZM13.5393 10.09L13.7622 9.97681L13.6403 9.73693L13.41 9.87603L13.5393 10.09ZM12.2293 10.77L12.1286 10.5411L12.125 10.5428L12.2293 10.77ZM5.99928 13.63L6.099 13.8593L6.10358 13.8572L5.99928 13.63ZM5.09928 13.29L5.32582 13.1839L5.3215 13.1755L5.09928 13.29ZM2.75928 8.75002L2.53522 8.861L2.53706 8.86456L2.75928 8.75002ZM2.98928 7.75002L2.84282 7.54724L2.83624 7.55234L2.98928 7.75002ZM3.16928 7.62002L3.31565 7.82269L3.32346 7.81705L3.33082 7.81082L3.16928 7.62002ZM4.00928 7.62002L4.17386 7.4318L4.17082 7.42922L4.00928 7.62002ZM5.99928 9.36002L6.16607 9.17378L6.16384 9.17182L5.99928 9.36002ZM8.44928 9.53002L8.3105 9.32208L8.30981 9.32254L8.44928 9.53002ZM17.5893 3.43002L17.8144 3.32127L17.6894 3.06262L17.4505 3.22208L17.5893 3.43002ZM18.5893 5.50002L18.8205 5.40495L18.8176 5.39802L18.8144 5.39127L18.5893 5.50002ZM19.4793 5.88002L19.5705 6.1128L19.574 6.11137L19.4793 5.88002ZM24.8993 3.66002L25.1317 3.56793L25.0385 3.33282L24.8045 3.42868L24.8993 3.66002ZM25.0993 4.28002H25.3493V4.24901L25.3417 4.21894L25.0993 4.28002ZM23.9193 5.40002L24.0208 5.62848V5.62848L23.9193 5.40002ZM20.5093 7.00002L20.6081 7.22991L20.6174 7.22545L20.5093 7.00002ZM18.555 7.78861L18.4639 7.5558L18.555 7.78861ZM16.5093 8.61002L16.4123 8.37952L16.407 8.38192L16.5093 8.61002ZM15.4393 9.09002L15.337 8.86192L15.1372 8.95152L15.1997 9.16134L15.4393 9.09002ZM19.7993 2.00002L19.9442 2.20378L19.9482 2.20086L19.7993 2.00002ZM20.4793 1.93002L20.5852 1.70358L20.5841 1.70307L20.4793 1.93002ZM18.8293 2.69002L18.6844 2.48631L18.5164 2.6058L18.6017 2.79347L18.8293 2.69002ZM19.6793 4.56002L19.4517 4.66347L19.5507 4.88135L19.7727 4.79191L19.6793 4.56002ZM23.1293 3.17002L23.2227 3.40191L23.7557 3.18715L23.2352 2.94359L23.1293 3.17002ZM20.9036 0.630993L24.9836 2.32099L25.1749 1.85905L21.0949 0.169053L20.9036 0.630993ZM19.2685 0.797697C19.7522 0.473471 20.3656 0.41115 20.9047 0.631447L21.0938 0.168599C20.4007 -0.114639 19.6121 -0.0345118 18.9901 0.382349L19.2685 0.797697ZM7.82774 8.40818L19.2677 0.798176L18.9908 0.381871L7.55081 7.99187L7.82774 8.40818ZM6.70401 8.3276C7.01709 8.60345 7.47558 8.63699 7.82548 8.40966L7.55307 7.99038C7.39129 8.09549 7.17931 8.07998 7.03455 7.95244L6.70401 8.3276ZM4.70627 6.60957L6.70627 8.32957L7.03229 7.95048L5.03229 6.23048L4.70627 6.60957ZM2.52549 6.50281C3.1874 6.02555 4.0913 6.06912 4.70424 6.60781L5.03431 6.23224C4.24624 5.53963 3.08409 5.48363 2.23306 6.09724L2.52549 6.50281ZM2.34565 6.63269L2.52565 6.50269L2.23291 6.09735L2.05291 6.22735L2.34565 6.63269ZM1.74195 9.39638C1.25682 8.44582 1.51315 7.2848 2.3534 6.62686L2.04515 6.23319C1.0165 7.03864 0.702694 8.45999 1.2966 9.62367L1.74195 9.39638ZM4.05209 13.9367L1.74209 9.39665L1.29646 9.62339L3.60646 14.1634L4.05209 13.9367ZM5.04995 14.8845C4.60651 14.7196 4.24871 14.3823 4.05808 13.9493L3.60047 14.1508C3.84556 14.7074 4.30559 15.1412 4.87572 15.3531L5.04995 14.8845ZM6.41183 14.8243C5.98467 15.0276 5.49338 15.0493 5.04995 14.8845L4.87572 15.3531C5.44585 15.5651 6.07751 15.5372 6.62672 15.2758L6.41183 14.8243ZM12.8969 11.912L6.41686 14.822L6.62169 15.2781L13.1017 12.3681L12.8969 11.912ZM14.6729 14.4101L13.2129 12.0101L12.7857 12.27L14.2457 14.67L14.6729 14.4101ZM15.053 14.6301C14.8973 14.6277 14.7538 14.5451 14.6737 14.4115L14.2449 14.6686C14.4139 14.9506 14.7168 15.1251 15.0456 15.13L15.053 14.6301ZM15.2305 14.6348C15.1868 14.6435 15.1418 14.6435 15.098 14.6348L15.0005 15.1252C15.1086 15.1467 15.2199 15.1467 15.328 15.1252L15.2305 14.6348ZM17.3337 13.8651L15.1937 14.6451L15.3649 15.1149L17.5049 14.3349L17.3337 13.8651ZM17.6368 13.2407C17.7015 13.4992 17.5679 13.7663 17.3223 13.8696L17.5162 14.3305C17.9893 14.1314 18.2464 13.6171 18.1218 13.1193L17.6368 13.2407ZM16.9755 10.3253L17.6355 13.2353L18.1231 13.1247L17.4631 10.2147L16.9755 10.3253ZM25.0363 6.46221L17.1163 10.0422L17.3223 10.4978L25.2423 6.91783L25.0363 6.46221ZM26.2193 4.53595C26.2388 5.35668 25.7737 6.11207 25.0321 6.46419L25.2465 6.91586C26.1664 6.4791 26.7433 5.54213 26.7192 4.5241L26.2193 4.53595ZM26.2193 4.28002V4.53002H26.7193V4.28002H26.2193ZM24.9753 2.31737C25.7408 2.66748 26.2284 3.4356 26.2193 4.27733L26.7193 4.28271C26.7304 3.24338 26.1285 2.29496 25.1833 1.86267L24.9753 2.31737ZM16.583 12.7244L15.933 9.87443L15.4455 9.98561L16.0955 12.8356L16.583 12.7244ZM15.426 13.3845L16.426 13.0145L16.2525 12.5456L15.2525 12.9156L15.426 13.3845ZM13.6458 10.8501L15.1258 13.2801L15.5528 13.02L14.0728 10.59L13.6458 10.8501ZM13.3164 10.2032L13.6364 10.8332L14.0822 10.6068L13.7622 9.97681L13.3164 10.2032ZM12.3299 10.9989C12.7906 10.7963 13.2377 10.5642 13.6685 10.304L13.41 9.87603C12.9977 10.1251 12.5696 10.3473 12.1287 10.5412L12.3299 10.9989ZM6.10358 13.8572L12.3336 10.9972L12.125 10.5428L5.89498 13.4028L6.10358 13.8572ZM4.87289 13.3961C5.08882 13.8569 5.63229 14.0622 6.09898 13.8593L5.89957 13.4008C5.68112 13.4958 5.42673 13.3997 5.32566 13.184L4.87289 13.3961ZM2.53706 8.86456L4.87706 13.4046L5.3215 13.1755L2.9815 8.63549L2.53706 8.86456ZM2.83624 7.55234C2.43717 7.86128 2.31126 8.40874 2.53525 8.86098L2.98331 8.63906C2.86497 8.40014 2.93149 8.11092 3.14232 7.94771L2.83624 7.55234ZM3.02291 7.41735L2.84291 7.54735L3.13565 7.95269L3.31565 7.82269L3.02291 7.41735ZM4.17082 7.42922C3.83519 7.14507 3.34337 7.14507 3.00774 7.42922L3.33082 7.81082C3.47998 7.68454 3.69857 7.68454 3.84774 7.81082L4.17082 7.42922ZM6.16384 9.17182L4.17384 7.43182L3.84472 7.80823L5.83472 9.54823L6.16384 9.17182ZM8.30981 9.32254C7.64534 9.76919 6.76248 9.70793 6.16606 9.17379L5.83249 9.54626C6.59932 10.233 7.73442 10.3118 8.58874 9.73751L8.30981 9.32254ZM17.4505 3.22208L8.3105 9.32208L8.58806 9.73797L17.7281 3.63797L17.4505 3.22208ZM18.8144 5.39127L17.8144 3.32127L17.3642 3.53877L18.3642 5.60877L18.8144 5.39127ZM19.388 5.64727C19.1644 5.73493 18.9118 5.62708 18.8205 5.40495L18.3581 5.5951C18.5532 6.06965 19.0928 6.30005 19.5705 6.11278L19.388 5.64727ZM24.8045 3.42868L19.3845 5.64868L19.574 6.11137L24.994 3.89137L24.8045 3.42868ZM25.3417 4.21894C25.2859 3.9976 25.2158 3.78014 25.1317 3.56793L24.6669 3.75211C24.7429 3.9441 24.8064 4.14085 24.8569 4.34111L25.3417 4.21894ZM25.3493 4.49002V4.28002H24.8493V4.49002H25.3493ZM24.0208 5.62848C24.1653 5.56428 24.473 5.41044 24.7483 5.22865C24.8853 5.13819 25.0238 5.0346 25.131 4.92573C25.226 4.82921 25.3493 4.67679 25.3493 4.49002H24.8493C24.8493 4.46326 24.8588 4.48958 24.7747 4.57494C24.7028 4.64795 24.597 4.72935 24.4728 4.8114C24.2256 4.97461 23.9433 5.11577 23.8177 5.17157L24.0208 5.62848ZM20.6174 7.22545C21.3473 6.87546 23.7544 5.74686 24.0208 5.62848L23.8177 5.17157C23.5441 5.29319 21.1312 6.42459 20.4012 6.77459L20.6174 7.22545ZM18.6461 8.02141C19.3289 7.75418 19.9852 7.49737 20.608 7.22971L20.4106 6.77034C19.7967 7.03417 19.1483 7.28795 18.4639 7.5558L18.6461 8.02141ZM16.6062 8.84046C17.3119 8.5436 17.9917 8.27752 18.6461 8.02141L18.4639 7.5558C17.8102 7.81164 17.1247 8.07992 16.4123 8.37959L16.6062 8.84046ZM15.5416 9.31812L16.6116 8.83812L16.407 8.38192L15.337 8.86192L15.5416 9.31812ZM15.9289 9.85871L15.6789 9.01871L15.1997 9.16134L15.4497 10.0013L15.9289 9.85871ZM19.9482 2.20086C20.0715 2.10939 20.235 2.09256 20.3744 2.15697L20.5841 1.70307C20.2787 1.56198 19.9207 1.59884 19.6504 1.79919L19.9482 2.20086ZM18.9742 2.89374L19.9442 2.20374L19.6544 1.79631L18.6844 2.48631L18.9742 2.89374ZM19.9069 4.45657L19.0569 2.58657L18.6017 2.79347L19.4517 4.66347L19.9069 4.45657ZM23.0358 2.93814L19.5858 4.32814L19.7727 4.79191L23.2227 3.40191L23.0358 2.93814ZM20.3733 2.15646L23.0233 3.39646L23.2352 2.94359L20.5852 1.70359L20.3733 2.15646Z" fill="#F57E80"/>
</g>
</svg>
