<svg width="19" height="25" viewBox="0 0 19 25" fill="none" xmlns="http://www.w3.org/2000/svg">
<path id="Shape" fill-rule="evenodd" clip-rule="evenodd" d="M15.5093 1.06C15.7278 1.14668 15.9036 1.31537 15.9993 1.53C16.1893 1.85 19.5393 9.52 17.2993 15.29C17.0953 15.8099 16.8478 16.3117 16.5593 16.79C17.3182 18.3811 17.3905 20.214 16.7593 21.86L16.0993 23.56C16.0456 23.7034 15.9519 23.8283 15.8293 23.92C15.6594 24.1466 15.3926 24.28 15.1093 24.28C15.0001 24.2776 14.892 24.2573 14.7893 24.22L11.7093 23.06C11.4822 22.9797 11.2978 22.8099 11.1993 22.59C11.1098 22.3687 11.1098 22.1213 11.1993 21.9L11.7893 20.36L5.48933 17.94L4.89933 19.49C4.7621 19.8352 4.43075 20.064 4.05933 20.07C3.94598 20.067 3.83415 20.0433 3.72933 20L0.609332 18.74C0.26684 18.5973 0.0452644 18.261 0.0493323 17.89C0.0069934 17.726 0.0069934 17.554 0.0493323 17.39L0.699332 15.69C1.33558 14.0241 2.62541 12.691 4.26933 12C4.38708 11.4734 4.54077 10.9555 4.72933 10.45C6.76717 5.14793 13.3879 1.79298 14.6345 1.16131L14.6345 1.16129L14.6346 1.16126C14.7398 1.10792 14.8067 1.07401 14.8293 1.06C15.0471 0.969991 15.2916 0.969991 15.5093 1.06ZM1.99933 17.36L3.54933 18L4.06933 16.62C3.98731 15.8128 3.96392 15.0006 3.99933 14.19C3.26833 14.7466 2.71009 15.499 2.38933 16.36L1.99933 17.36ZM13.7593 20.28C14.3308 19.7612 14.8654 19.2032 15.3593 18.61C15.5316 19.4901 15.4554 20.4008 15.1393 21.24L14.7393 22.24L13.2093 21.67L13.7593 20.28ZM12.6593 18.82C13.958 17.6752 14.9831 16.2536 15.6593 14.66V14.65C17.2093 10.62 15.5193 5.21 14.7193 3.09C12.7593 4.16 7.89933 7.09 6.35933 11.09C6.16685 11.6233 6.01966 12.1719 5.91933 12.73C5.92981 12.7963 5.92981 12.8637 5.91933 12.93C5.75775 13.9989 5.72418 15.0832 5.81933 16.16L12.6593 18.82Z" fill="#333333" fill-opacity="0.5"/>
</svg>
