<svg width="27" height="23" xmlns="http://www.w3.org/2000/svg">

 <g>
  <title>background</title>
  <rect fill="none" id="canvas_background" height="25" width="29" y="-1" x="-1"/>
 </g>
 <g class="layer">
  <title>Layer 1</title>
  <g stroke="null" id="svg_1">
   <path stroke="null" id="svg_2" d="m2.86964,2.92779l0,0.92781l12.19541,0l0,10.22321l-11.32169,0l0,-11.15102l-0.87373,0l0,0.92781l0,-0.92781l-0.86964,0l0,12.07881c0,0.24393 0.0939,0.48351 0.25313,0.65773c0.16332,0.17424 0.38787,0.27006 0.61651,0.27006l13.06506,0c0.22864,0 0.45318,-0.10018 0.61651,-0.27006c0.16331,-0.17423 0.25313,-0.41381 0.25313,-0.65773l0,-12.07881c0,-0.24393 -0.0939,-0.48349 -0.25313,-0.65773c-0.16332,-0.17423 -0.38787,-0.27006 -0.61651,-0.27006l-13.06506,0c-0.22864,0 -0.45318,0.10018 -0.61651,0.27006c-0.15923,0.17424 -0.25313,0.41381 -0.25313,0.65773l0.86964,0z"/>
   <path stroke="null" id="svg_3" d="m15.9347,7.57551l0,0.92779l3.12336,0l2.10266,2.24327l0,3.33224l-4.3523,0l0,-6.50332l-0.87373,0l0,0.92781l0,-0.92781l-0.86965,0l0,7.43546c0,0.24394 0.09391,0.48351 0.25315,0.65775c0.16331,0.17423 0.38787,0.27006 0.61651,0.27006l6.09566,0c0.22864,0 0.4532,-0.1002 0.61651,-0.27006c0.16332,-0.17424 0.25313,-0.41381 0.25313,-0.65775l0,-4.6477c0,-0.24393 -0.0939,-0.48349 -0.25313,-0.65773l-2.61301,-2.78776c-0.16331,-0.17423 -0.38787,-0.27006 -0.61651,-0.27006l-3.48265,0c-0.22864,0 -0.4532,0.10018 -0.61651,0.27006c-0.16332,0.17424 -0.25315,0.41381 -0.25315,0.65773l0.86965,0l0,0.00002z"/>
   <path stroke="null" id="svg_4" d="m6.78915,15.00661l0,0.92779c0.72266,0 1.30651,0.62289 1.30651,1.39388c0,0.77099 -0.58385,1.39388 -1.30651,1.39388c-0.72266,0 -1.30651,-0.62289 -1.30651,-1.39388c0,-0.77099 0.58385,-1.39388 1.30651,-1.39388l0,-0.92779l0,-0.92779c-1.68212,0 -3.04987,1.45485 -3.04987,3.25382c0,1.79463 1.36366,3.25384 3.04987,3.25384c1.68214,0 3.04988,-1.45487 3.04988,-3.25384c0,-1.79461 -1.36367,-3.25382 -3.04988,-3.25382l0,0.92779z"/>
   <path stroke="null" id="svg_5" d="m18.11493,15.00661l0,0.92779c0.72266,0 1.30651,0.62289 1.30651,1.39388c0,0.77099 -0.58385,1.39388 -1.30651,1.39388c-0.72266,0 -1.30651,-0.62289 -1.30651,-1.39388c0,-0.77099 0.58385,-1.39388 1.30651,-1.39388l0,-0.92779l0,-0.92779c-1.68214,0 -3.04988,1.45485 -3.04988,3.25382c0,1.79463 1.36367,3.25384 3.04988,3.25384c1.68212,0 3.04987,-1.45487 3.04987,-3.25384c0,-1.79461 -1.36366,-3.25382 -3.04987,-3.25382l0,0.92779z"/>
  </g>
 </g>
</svg>