<svg width="48" height="16" viewBox="0 0 48 16" fill="none" xmlns="http://www.w3.org/2000/svg">
<g id="visa_color">
<path id="Shape" d="M20.4594 15.06H16.6094L19.0194 0.27002H22.8694L20.4594 15.06Z" fill="#0066B2"/>
<path id="Shape_2" d="M13.37 0.260006L9.7 10.44L9.26 8.25001L8 1.60001C7.83746 0.728216 7.0184 0.138139 6.14 0.260006H0.07L0 0.520006C1.41229 0.87433 2.76149 1.44436 4 2.21001L7.37 15.06H11.37L17.52 0.260006H13.37Z" fill="#0066B2"/>
<path id="Shape_3" fill-rule="evenodd" clip-rule="evenodd" d="M47.2 15.06H43.66L43.2 12.86H38.31L37.5 15.06H33.5L39.22 1.37C39.5065 0.650379 40.2277 0.200667 41 0.259995H44.12L47.2 15.06ZM41.43 4.29L39.43 9.83H42.57L41.43 4.29Z" fill="#0066B2"/>
<path id="Shape_4" d="M33.8001 3.82L34.3501 0.64C33.2343 0.245311 32.0632 0.0293169 30.8801 0C29.0001 0 24.4301 0.84 24.4301 4.9C24.4301 8.72 29.7601 8.77 29.7601 10.77C29.7601 12.77 24.9801 12.42 23.4101 11.16L22.8301 14.48C24.2077 15.0525 25.6885 15.335 27.1801 15.31C29.8101 15.31 33.7801 13.95 33.7801 10.25C33.7801 6.4 28.4001 6 28.4001 4.37C28.4001 2.74 32.1501 2.91 33.8001 3.82Z" fill="#0066B2"/>
<path id="Shape_5" d="M9.26 8.25001L8 1.60001C7.83746 0.728216 7.0184 0.138139 6.14 0.260006H0.07L0 0.520006C2.09259 1.04958 4.04458 2.02899 5.72 3.39001C7.31011 4.66741 8.53187 6.34474 9.26 8.25001Z" fill="#F9A533"/>
</g>
</svg>
