<svg width="48" height="16" viewBox="0 0 48 16" fill="none" xmlns="http://www.w3.org/2000/svg">
<g id="visa_b&#38;w">
<path id="Shape" d="M13.7698 0.27002L9.99984 10.39L9.58984 8.34002C8.65959 6.05739 6.86121 4.23743 4.58984 3.28002L7.73984 15.09H11.7398L17.7398 0.27002H13.7698" fill="#333333"/>
<path id="Shape_2" d="M16.9805 15.1L19.3805 0.26001H23.2205L20.8205 15.1H16.9805Z" fill="#333333"/>
<path id="Shape_3" d="M34.7205 0.620023C33.6241 0.207517 32.4619 -0.00255439 31.2905 2.34395e-05C27.5005 2.34395e-05 24.8305 2.00002 24.8105 4.90002C24.8105 7.03002 26.7105 8.22002 28.1605 8.90002C29.6105 9.58002 30.1605 10.1 30.1605 10.75C30.1605 11.75 28.9705 12.2 27.8705 12.2C26.6219 12.2347 25.3834 11.9671 24.2605 11.42L23.7705 11.18L23.2305 14.5C24.5891 15.0379 26.0394 15.3062 27.5005 15.29C31.5005 15.29 34.1505 13.29 34.1805 10.22C34.1805 8.53002 33.1805 7.22002 30.9605 6.22002C29.6205 5.53002 28.7905 5.08002 28.8005 4.38002C28.8105 3.68002 29.4905 3.10002 31.0005 3.10002C31.9872 3.07918 32.9666 3.2737 33.8705 3.67002L34.2105 3.84002L34.7205 0.620023Z" fill="#333333"/>
<path id="Shape_4" fill-rule="evenodd" clip-rule="evenodd" d="M41.5606 0.270042H44.5606L47.6306 15.1H44.0706C44.0706 15.1 43.7206 13.39 43.6006 12.88H38.6906L37.8906 15.11H33.8906L39.5606 1.50004C39.8668 0.680304 40.6909 0.173489 41.5606 0.270042ZM41.3506 5.69004L39.8306 9.84004H43.0106C42.8606 9.10004 42.1206 5.56004 42.1206 5.56004L41.8606 4.28004C41.6706 4.83004 41.3506 5.69004 41.3506 5.69004Z" fill="#333333"/>
<path id="Shape_5" d="M6.53078 0.260002H0.350781L0.300781 0.570002C4.55078 1.64 8.00078 4 9.62078 8.34L8.27078 1.51C8.09651 0.709199 7.34532 0.169549 6.53078 0.260002Z" fill="#333333"/>
</g>
</svg>
